<?xml version="1.0" encoding="utf-8"?>
<svg version="1.1" xmlns:xlink="http://www.w3.org/1999/xlink" width="12px" height="12px" viewBox="101 795  12 12" xmlns="http://www.w3.org/2000/svg">
  <path d="M 107 795  C 110.36 795  113 797.64  113 801  C 113 804.36  110.36 807  107 807  C 103.64 807  101 804.36  101 801  C 101 797.64  103.64 795  107 795  Z " fill-rule="nonzero" fill="#f0f0f0" stroke="none" />
  <path d="M 107 795.5  C 110.08 795.5  112.5 797.92  112.5 801  C 112.5 804.08  110.08 806.5  107 806.5  C 103.92 806.5  101.5 804.08  101.5 801  C 101.5 797.92  103.92 795.5  107 795.5  Z " stroke-width="1" stroke="#797979" fill="none" />
  <path d="M 107 804  C 105.32 804  104 802.68  104 801  C 104 799.32  105.32 798  107 798  C 108.68 798  110 799.32  110 801  C 110 802.68  108.68 804  107 804  " fill-rule="nonzero" fill="#797979" stroke="none" />
</svg>