<svg width="42" height="42" viewBox="0 0 42 42" fill="none" xmlns="http://www.w3.org/2000/svg">
  <path d="M30.625 7H29.75V5.25C29.75 4.2875 28.9625 3.5 28 3.5C27.0375 3.5 26.25 4.2875 26.25 5.25V7H15.75V5.25C15.75 4.2875 14.9625 3.5 14 3.5C13.0375 3.5 12.25 4.2875 12.25 5.25V7H11.375C9.4325 7 7.8925 8.575 7.8925 10.5L7.875 33.25C7.875 35.175 9.4325 36.75 11.375 36.75H30.625C32.55 36.75 34.125 35.175 34.125 33.25V10.5C34.125 8.575 32.55 7 30.625 7ZM30.625 33.25H11.375V15.75H30.625V33.25ZM14.875 19.25H21V25.375H14.875V19.25Z" fill="#FFFFFF"/>
</svg>
