<svg width="42" height="42" viewBox="0 0 42 42" fill="none" xmlns="http://www.w3.org/2000/svg">
  <path d="M16.625 7L14.2975 9.5H10.5C9.075 9.5 7.875 10.7 7.875 12.125V31.375C7.875 32.8 9.075 34 10.5 34H31.5C32.925 34 34.125 32.8 34.125 31.375V12.125C34.125 10.7 32.925 9.5 31.5 9.5H27.7025L25.375 7H16.625ZM21 29.625C17.135 29.625 14 26.49 14 22.625C14 18.76 17.135 15.625 21 15.625C24.865 15.625 28 18.76 28 22.625C28 26.49 24.865 29.625 21 29.625Z" fill="#FFFFFF"/>
  <circle cx="21" cy="22.625" r="4.375" fill="#FFFFFF"/>
</svg>
