<svg width="42" height="42" viewBox="0 0 42 42" fill="none" xmlns="http://www.w3.org/2000/svg">
  <path d="M31.5 12.25H10.5C7.6 12.25 5.25 14.6 5.25 17.5V28C5.25 30.9 7.6 33.25 10.5 33.25H31.5C34.4 33.25 36.75 30.9 36.75 28V17.5C36.75 14.6 34.4 12.25 31.5 12.25ZM19.25 24.5H17.5V26.25C17.5 26.7312 17.1063 27.125 16.625 27.125C16.1438 27.125 15.75 26.7312 15.75 26.25V24.5H14C13.5188 24.5 13.125 24.1062 13.125 23.625C13.125 23.1438 13.5188 22.75 14 22.75H15.75V21C15.75 20.5188 16.1438 20.125 16.625 20.125C17.1063 20.125 17.5 20.5188 17.5 21V22.75H19.25C19.7313 22.75 20.125 23.1438 20.125 23.625C20.125 24.1062 19.7313 24.5 19.25 24.5ZM24.5 26.25C23.7625 26.25 23.1875 25.675 23.1875 24.9375C23.1875 24.2 23.7625 23.625 24.5 23.625C25.2375 23.625 25.8125 24.2 25.8125 24.9375C25.8125 25.675 25.2375 26.25 24.5 26.25ZM28 22.75C27.2625 22.75 26.6875 22.175 26.6875 21.4375C26.6875 20.7 27.2625 20.125 28 20.125C28.7375 20.125 29.3125 20.7 29.3125 21.4375C29.3125 22.175 28.7375 22.75 28 22.75Z" fill="#FFFFFF"/>
</svg>
