<svg width="42" height="42" viewBox="0 0 42 42" fill="none" xmlns="http://www.w3.org/2000/svg">
  <path d="M30.625 5.25H11.375C8.0675 5.25 5.25 8.0675 5.25 11.375V30.625C5.25 33.9325 8.0675 36.75 11.375 36.75H30.625C33.9325 36.75 36.75 33.9325 36.75 30.625V11.375C36.75 8.0675 33.9325 5.25 30.625 5.25ZM19.25 29.75H17.5L16.275 26.25H11.55L10.325 29.75H8.575L13.3 17.5H14.525L19.25 29.75ZM33.25 28H31.5C31.5 28 31.15 26.6 30.625 24.9375C29.225 26.425 27.475 27.475 27.475 27.475L26.6 26.075C26.6 26.075 28.525 24.9375 29.925 23.275H26.775V21.875H30.275V21H31.675V21.875H35.175V23.275H32.2C32.725 24.5 33.25 28 33.25 28ZM30.275 19.425H27.475V18.025H30.275V15.75H31.675V18.025H34.475V19.425H31.675V20.125H30.275V19.425Z" fill="#FFFFFF"/>
  <path d="M13.9125 19.425L11.9875 24.85H15.8375L13.9125 19.425Z" fill="#FFFFFF"/>
</svg>
