<svg width="156" height="35" viewBox="0 0 156 35" fill="#FFFFFF" xmlns="http://www.w3.org/2000/svg">
<path d="M65.7864 1.95384C65.7864 0.836273 66.5711 0 67.6833 0C68.7955 0 69.5703 0.836273 69.5703 1.95384C69.5703 3.0714 68.7855 3.89754 67.6833 3.89754C66.5811 3.89754 65.7864 3.0714 65.7864 1.95384ZM66.1313 1.95384C66.1313 2.89654 66.7436 3.5757 67.6833 3.5757C68.623 3.5757 69.2254 2.89654 69.2254 1.95384C69.2254 1.01113 68.613 0.331975 67.6833 0.331975C66.7536 0.331975 66.1313 1.01113 66.1313 1.95384ZM68.0082 2.13883L68.5831 2.9751L68.0932 2.98524L67.5658 2.1591H67.3459V2.98524H66.9335V0.894558H67.8258C68.2481 0.894558 68.5156 1.13784 68.5156 1.52556C68.5156 1.855 68.3231 2.08054 68.0082 2.13883ZM67.3484 1.27215V1.80686H67.7983C67.9707 1.80686 68.1057 1.7283 68.1057 1.5357C68.1057 1.3431 67.9707 1.27215 67.7983 1.27215H67.3484Z"/>
<path d="M63.7444 14.2394V0.0253318H44.9048V9.1331H51.4179V6.18841H57.2413V14.2394H44.9048V20.6889H57.2413V34.8726H63.7444V20.6889H69.5702V14.2394H63.7444Z"/>
<path d="M4.04635 0.0278649L0 3.68719V31.2335L4.04635 34.87H15.3556L19.5119 31.2335V25.6203H13.1687V28.4383H6.34319V6.45956H13.1687V9.07482H19.5119V3.70746L15.3556 0.0278649H4.04635Z"/>
<path d="M28.9168 6.43676H35.4999V14.2217H28.9168V6.43676ZM22.5511 0.0278649V34.87H28.9168V20.6762H30.7987L36.2022 34.87H43.0053L37.5143 20.5875L41.8456 16.4847V3.68719L37.7993 0.0278649H22.5511Z"/>
<path d="M83.5584 27.4391V0.0392281H76.2658V34.8726H94.9482V27.4391H83.5584Z"/>
<path d="M96.8457 0.0392281V7.47272H99.4422V27.4391H96.8457V34.8726H109.398V27.4391H106.801V7.47272H109.398V0.0392281H96.8457Z"/>
<path d="M116.944 0.0392281L116.761 0.263431L111.295 6.90056V34.8726H118.642V20.7834H132.751V13.3597H118.642V9.53762C119.065 9.02871 119.466 8.55539 119.857 8.09987L119.903 8.04649C120.065 7.85431 120.234 7.66214 120.4 7.46285H132.751V0.0392281H116.944Z"/>
<path d="M155.958 0.0392281H141.06L140.882 0.224512L134.823 6.50278L134.648 6.6845V28.4803L134.83 28.662L140.903 34.698L141.081 34.8726H155.954V27.4399H144.074L141.942 25.2948V21.1295H155.954V13.6968H141.942V9.73456C142.522 9.13239 143.043 8.6086 143.592 8.05632C143.784 7.86391 143.973 7.6715 144.169 7.47909H155.954V0.0392281H155.958Z"/>
</svg>
