<svg width="42" height="42" viewBox="0 0 42 42" fill="none" xmlns="http://www.w3.org/2000/svg">
  <path d="M11.8825 18.7425C14.1225 23.1525 17.7975 26.81 22.2075 29.0675L25.6375 25.6375C26.0575 25.2175 26.6875 25.0775 27.2475 25.2875C29.085 25.9 31.0625 26.2325 33.1125 26.2325C33.9875 26.2325 34.7375 26.9825 34.7375 27.8575V33.1125C34.7375 33.9875 33.9875 34.7375 33.1125 34.7375C18.305 34.7375 6.3 22.7325 6.3 7.925C6.3 7.05 7.05 6.3 7.925 6.3H13.1975C14.0725 6.3 14.8225 7.05 14.8225 7.925C14.8225 9.9925 15.155 11.9525 15.7675 13.79C15.96 14.35 15.8375 14.9625 15.4 15.4L11.8825 18.7425Z" fill="#FFFFFF"/>
</svg>
