<svg width="42" height="42" viewBox="0 0 42 42" fill="none" xmlns="http://www.w3.org/2000/svg">
  <path d="M35 14V10.5C35 9.125 33.875 8 32.5 8H9.5C8.125 8 7.0175 9.125 7.0175 10.5V14C8.3925 14 9.5175 15.125 9.5175 16.5C9.5175 17.875 8.3925 19 7.0175 19V22.5C7.0175 23.875 8.125 25 9.5 25H32.5C33.875 25 35 23.875 35 22.5V19C33.625 19 32.5 17.875 32.5 16.5C32.5 15.125 33.625 14 35 14ZM30 20.75H27.5V23.25H25V20.75H17V23.25H14.5V20.75H12V18.25H14.5V15.75H17V18.25H25V15.75H27.5V18.25H30V20.75Z" fill="#FFFFFF"/>
</svg>
