 <svg width="36" height="36" viewBox="0 0 36 36" fill="none" xmlns="http://www.w3.org/2000/svg">
<path d="M2.91992 13.1426C2.91992 11.5296 4.2275 10.222 5.84048 10.222H11.6816V8.76175C11.6816 7.14877 12.9892 5.84119 14.6022 5.84119H20.4433C22.0563 5.84119 23.3638 7.14877 23.3638 8.76175V10.222H29.205C30.818 10.222 32.1255 11.5296 32.1255 13.1426V26.2851C32.1255 27.8981 30.818 29.2057 29.205 29.2057H5.84048C4.2275 29.2057 2.91992 27.8981 2.91992 26.2851V13.1426Z" stroke="currentColor" stroke-width="2.27804"/>
<path d="M21.9036 18.9837C21.9036 21.4032 19.9422 23.3646 17.5227 23.3646C15.1033 23.3646 13.1419 21.4032 13.1419 18.9837C13.1419 16.5642 15.1033 14.6029 17.5227 14.6029C19.9422 14.6029 21.9036 16.5642 21.9036 18.9837Z" stroke="currentColor" stroke-width="2.27804"/>
</svg>
