<svg width="24" height="24" viewBox="0 0 24 24" fill="none" xmlns="http://www.w3.org/2000/svg">
<path d="M9 2C9 1.44772 8.55228 1 8 1C7.44772 1 7 1.44772 7 2H8H9ZM7 6C7 6.55228 7.44772 7 8 7C8.55228 7 9 6.55228 9 6H8H7ZM17 2C17 1.44772 16.5523 1 16 1C15.4477 1 15 1.44772 15 2H16H17ZM15 6C15 6.55228 15.4477 7 16 7C16.5523 7 17 6.55228 17 6H16H15ZM12 15C11.4477 15 11 15.4477 11 16C11 16.5523 11.4477 17 12 17V16V15ZM12.01 17C12.5623 17 13.01 16.5523 13.01 16C13.01 15.4477 12.5623 15 12.01 15V16V17ZM16 15C15.4477 15 15 15.4477 15 16C15 16.5523 15.4477 17 16 17V16V15ZM16.01 17C16.5623 17 17.01 16.5523 17.01 16C17.01 15.4477 16.5623 15 16.01 15V16V17ZM8 15C7.44772 15 7 15.4477 7 16C7 16.5523 7.44772 17 8 17V16V15ZM8.01 17C8.56228 17 9.01 16.5523 9.01 16C9.01 15.4477 8.56228 15 8.01 15V16V17ZM6 4V5H18V4V3H6V4ZM21 7H20V19H21H22V7H21ZM18 22V21H6V22V23H18V22ZM3 19H4V7H3H2V19H3ZM6 22V21C4.89543 21 4 20.1046 4 19H3H2C2 21.2091 3.79086 23 6 23V22ZM21 19H20C20 20.1046 19.1046 21 18 21V22V23C20.2091 23 22 21.2091 22 19H21ZM18 4V5C19.1046 5 20 5.89543 20 7H21H22C22 4.79086 20.2091 3 18 3V4ZM6 4V3C3.79086 3 2 4.79086 2 7H3H4C4 5.89543 4.89543 5 6 5V4ZM3 10V11H21V10V9H3V10ZM8 2H7V6H8H9V2H8ZM16 2H15V6H16H17V2H16ZM12 16V17H12.01V16V15H12V16ZM16 16V17H16.01V16V15H16V16ZM8 16V17H8.01V16V15H8V16Z" fill="#d8fc0f"/>
</svg>
