<svg width="24" height="24" viewBox="0 0 24 24" fill="none" xmlns="http://www.w3.org/2000/svg">
<path d="M15.6364 15.6365V3.81836H2V15.6365H15.6364ZM15.6364 15.6365H22V11.0911L19.2727 8.36381H15.6364V15.6365ZM8.36364 17.9093C8.36364 19.1645 7.3461 20.182 6.09091 20.182C4.83572 20.182 3.81818 19.1645 3.81818 17.9093C3.81818 16.6541 4.83572 15.6365 6.09091 15.6365C7.3461 15.6365 8.36364 16.6541 8.36364 17.9093ZM20.1818 17.9093C20.1818 19.1645 19.1643 20.182 17.9091 20.182C16.6539 20.182 15.6364 19.1645 15.6364 17.9093C15.6364 16.6541 16.6539 15.6365 17.9091 15.6365C19.1643 15.6365 20.1818 16.6541 20.1818 17.9093Z" stroke="currentColor" stroke-width="2" stroke-linecap="round" stroke-linejoin="round"/>
</svg>
