<svg width="42" height="42" viewBox="0 0 42 42" fill="none" xmlns="http://www.w3.org/2000/svg">
<path d="M29.7325 16.9924H12.2676C11.5501 16.9924 10.9551 16.3974 10.9551 15.6799C10.9551 14.9624 11.5501 14.3674 12.2676 14.3674H29.7325C30.45 14.3674 31.045 14.9624 31.045 15.6799C31.045 16.3974 30.45 16.9924 29.7325 16.9924Z" fill="c"/>
<path d="M21 16.9925C20.2825 16.9925 19.6875 16.3975 19.6875 15.68V12.74C19.6875 12.0225 20.2825 11.4275 21 11.4275C21.7175 11.4275 22.3125 12.0225 22.3125 12.74V15.68C22.3125 16.3975 21.7175 16.9925 21 16.9925Z" fill="currentColor"/>
<path d="M12.25 30.5723C11.5325 30.5723 10.9375 29.9773 10.9375 29.2598C10.9375 28.5423 11.5325 27.9473 12.25 27.9473C18.76 27.9473 24.0625 22.4349 24.0625 15.6449C24.0625 14.9274 24.6575 14.3324 25.375 14.3324C26.0925 14.3324 26.6875 14.9274 26.6875 15.6449C26.6875 23.8874 20.2125 30.5723 12.25 30.5723Z" fill="currentColor"/>
<path d="M29.7502 30.5724C26.3027 30.5724 23.1001 28.8575 20.7551 25.725C20.3176 25.1475 20.4402 24.325 21.0177 23.8875C21.5952 23.45 22.4177 23.5724 22.8552 24.1499C24.7102 26.5999 27.1602 27.9474 29.7677 27.9474C30.4852 27.9474 31.0802 28.5424 31.0802 29.2599C31.0802 29.9774 30.4677 30.5724 29.7502 30.5724Z" fill="currentColor"/>
<path d="M26.25 39.8125H15.75C6.2475 39.8125 2.1875 35.7525 2.1875 26.25V15.75C2.1875 6.2475 6.2475 2.1875 15.75 2.1875H26.25C35.7525 2.1875 39.8125 6.2475 39.8125 15.75V26.25C39.8125 35.7525 35.7525 39.8125 26.25 39.8125ZM15.75 4.8125C7.6825 4.8125 4.8125 7.6825 4.8125 15.75V26.25C4.8125 34.3175 7.6825 37.1875 15.75 37.1875H26.25C34.3175 37.1875 37.1875 34.3175 37.1875 26.25V15.75C37.1875 7.6825 34.3175 4.8125 26.25 4.8125H15.75Z" fill="currentColor"/>
</svg>
