<svg width="42" height="42" viewBox="0 0 42 42" fill="none" xmlns="http://www.w3.org/2000/svg">
<path d="M14 14H21M14 21H28M14 28H28M14 38.5H28C31.2998 38.5 32.9497 38.5 33.9749 37.4749C35 36.4497 35 34.7998 35 31.5V10.5C35 7.20017 35 5.55025 33.9749 4.52513C32.9497 3.5 31.2998 3.5 28 3.5H14C10.7002 3.5 9.05025 3.5 8.02513 4.52513C7 5.55025 7 7.20017 7 10.5V31.5C7 34.7998 7 36.4497 8.02513 37.4749C9.05025 38.5 10.7002 38.5 14 38.5Z" stroke="currentColor" stroke-width="2.625" stroke-linecap="round" stroke-linejoin="round"/>
</svg>
