<svg width="22" height="36" viewBox="0 0 22 36" fill="none" xmlns="http://www.w3.org/2000/svg">
<path d="M3.57143 35.7143V16.0714L0 10.7143V0H21.4286V10.7143L17.8571 16.0714V35.7143H3.57143ZM10.7143 24.1071C9.97024 24.1071 9.3378 23.8467 8.81696 23.3259C8.29613 22.8051 8.03571 22.1726 8.03571 21.4286C8.03571 20.6845 8.29613 20.0521 8.81696 19.5313C9.3378 19.0104 9.97024 18.75 10.7143 18.75C11.4583 18.75 12.0908 19.0104 12.6116 19.5313C13.1324 20.0521 13.3929 20.6845 13.3929 21.4286C13.3929 22.1726 13.1324 22.8051 12.6116 23.3259C12.0908 23.8467 11.4583 24.1071 10.7143 24.1071ZM3.57143 5.35714H17.8571V3.57143H3.57143V5.35714ZM17.8571 8.92857H3.57143V9.64286L7.14286 15V32.1429H14.2857V15L17.8571 9.64286V8.92857Z" fill="currentColor"/>
</svg>
