<svg width="43" height="43" viewBox="0 0 43 43" fill="none" xmlns="http://www.w3.org/2000/svg">
<path d="M25.6674 13.6682V9.98826C25.6674 9.01228 25.2764 8.07629 24.5805 7.38617C23.8846 6.69605 22.9407 6.30835 21.9565 6.30835H8.96864C7.98447 6.30835 7.0406 6.69605 6.34469 7.38617C5.64877 8.07629 5.25781 9.01228 5.25781 9.98826V32.0677C5.25781 33.0437 5.64877 33.9797 6.34469 34.6698C7.0406 35.3599 7.98447 35.7476 8.96864 35.7476H21.9565C22.9407 35.7476 23.8846 35.3599 24.5805 34.6698C25.2764 33.9797 25.6674 33.0437 25.6674 32.0677V28.3878M14.5349 21.028H36.7999M36.7999 21.028L31.2336 15.5081M36.7999 21.028L31.2336 26.5478" stroke="#C93838" stroke-width="2.6285" stroke-linecap="round" stroke-linejoin="round"/>
</svg>
