<svg width="24" height="24" viewBox="0 0 24 24" fill="none" xmlns="http://www.w3.org/2000/svg">
<path d="M4.11765 4V3V4ZM17.8824 22L17.8217 22.9982C17.8419 22.9994 17.8621 23 17.8824 23V22ZM2 6.11765H1C1 6.13788 1.00061 6.15811 1.00184 6.17831L2 6.11765ZM18.7428 15.1442L18.3714 16.0726V16.0726L18.7428 15.1442ZM13.9428 14.8012L13.0853 14.2867L13.9428 14.8012ZM16.0829 14.0802L16.4543 13.1518V13.1518L16.0829 14.0802ZM11.7325 15.3704L12.2937 14.5428V14.5428L11.7325 15.3704ZM9.19883 10.0572L9.71332 10.9147L9.19883 10.0572ZM8.6296 12.2675L7.80195 12.8288V12.8288L8.6296 12.2675ZM9.91977 7.91708L10.8482 7.54569L9.91977 7.91708ZM8.85583 5.25722L9.78431 4.88583V4.88583L8.85583 5.25722ZM14.1915 5.01851C13.6494 4.91275 13.1243 5.26644 13.0185 5.80851C12.9127 6.35057 13.2664 6.87573 13.8085 6.98149L14 6L14.1915 5.01851ZM16.5781 7.37194L15.871 8.07904V8.07904L16.5781 7.37194ZM16.9685 10.1415C17.0743 10.6836 17.5994 11.0373 18.1415 10.9315C18.6836 10.8257 19.0373 10.3006 18.9315 9.75851L17.95 9.95L16.9685 10.1415ZM14.1105 1.00613C13.5617 0.945074 13.0672 1.34055 13.0061 1.88945C12.9451 2.43835 13.3406 2.93282 13.8895 2.99387L14 2L14.1105 1.00613ZM19.4 4.59648L18.6929 5.30359V5.30359L19.4 4.59648ZM21.0062 10.1115C21.0678 10.6604 21.5627 11.0554 22.1115 10.9938C22.6604 10.9322 23.0554 10.4373 22.9938 9.88847L22 10L21.0062 10.1115ZM4.11765 4V5H6.99887V4V3H4.11765V4ZM8.85583 5.25722L7.92735 5.62861L8.9913 8.28847L9.91977 7.91708L10.8482 7.54569L9.78431 4.88583L8.85583 5.25722ZM8.6296 12.2675L7.80195 12.8288C8.70135 14.1551 9.8449 15.2987 11.1712 16.1981L11.7325 15.3704L12.2937 14.5428C11.1771 13.7856 10.2144 12.8229 9.45725 11.7063L8.6296 12.2675ZM16.0829 14.0802L15.7115 15.0087L18.3714 16.0726L18.7428 15.1442L19.1142 14.2157L16.4543 13.1518L16.0829 14.0802ZM20 17.0011H19V19.8824H20H21V17.0011H20ZM20 19.8824H19C19 20.1788 18.8822 20.4631 18.6726 20.6726L19.3798 21.3798L20.0869 22.0869C20.6715 21.5022 21 20.7092 21 19.8824H20ZM19.3798 21.3798L18.6726 20.6726C18.4631 20.8822 18.1788 21 17.8824 21V22V23C18.7092 23 19.5022 22.6715 20.0869 22.0869L19.3798 21.3798ZM17.8824 22L17.943 21.0018C14.0566 20.7657 10.391 19.1153 7.63787 16.3621L6.93076 17.0692L6.22365 17.7763C9.32224 20.8749 13.4477 22.7323 17.8217 22.9982L17.8824 22ZM6.93076 17.0692L7.63787 16.3621C4.8847 13.609 3.23434 9.94338 2.99816 6.05699L2 6.11765L1.00184 6.17831C1.26765 10.5523 3.12507 14.6778 6.22365 17.7763L6.93076 17.0692ZM2 6.11765H3C3 5.82123 3.11775 5.53695 3.32735 5.32735L2.62024 4.62024L1.91314 3.91314C1.32847 4.49781 1 5.2908 1 6.11765H2ZM2.62024 4.62024L3.32735 5.32735C3.53695 5.11775 3.82123 5 4.11765 5V4V3C3.2908 3 2.49781 3.32847 1.91314 3.91314L2.62024 4.62024ZM18.7428 15.1442L18.3714 16.0726C18.751 16.2245 19 16.5922 19 17.0011H20H21C21 15.7744 20.2531 14.6713 19.1142 14.2157L18.7428 15.1442ZM13.9428 14.8012L14.8003 15.3157C14.9876 15.0036 15.3736 14.8735 15.7115 15.0087L16.0829 14.0802L16.4543 13.1518C15.205 12.652 13.7776 13.1329 13.0853 14.2867L13.9428 14.8012ZM11.7325 15.3704L11.1712 16.1981C12.4716 17.0798 14.0875 16.5037 14.8003 15.3157L13.9428 14.8012L13.0853 14.2867C12.8655 14.653 12.4936 14.6783 12.2937 14.5428L11.7325 15.3704ZM9.19883 10.0572L8.68433 9.19968C7.49629 9.91251 6.92016 11.5284 7.80195 12.8288L8.6296 12.2675L9.45725 11.7063C9.32169 11.5064 9.34701 11.1345 9.71332 10.9147L9.19883 10.0572ZM9.91977 7.91708L8.9913 8.28847C9.12646 8.62638 8.99641 9.01244 8.68433 9.19968L9.19883 10.0572L9.71332 10.9147C10.8671 10.2224 11.348 8.79503 10.8482 7.54569L9.91977 7.91708ZM6.99887 4V5C7.40778 5 7.77549 5.24895 7.92735 5.62861L8.85583 5.25722L9.78431 4.88583C9.32872 3.74685 8.22559 3 6.99887 3V4ZM14 6L13.8085 6.98149C14.5899 7.13395 15.308 7.5161 15.871 8.07904L16.5781 7.37194L17.2852 6.66483C16.4408 5.82041 15.3636 5.24718 14.1915 5.01851L14 6ZM16.5781 7.37194L15.871 8.07904C16.4339 8.64198 16.8161 9.36011 16.9685 10.1415L17.95 9.95L18.9315 9.75851C18.7028 8.58642 18.1296 7.50924 17.2852 6.66483L16.5781 7.37194ZM14 2L13.8895 2.99387C15.7057 3.1959 17.3996 4.01028 18.6929 5.30359L19.4 4.59648L20.1071 3.88937C18.4929 2.27521 16.3784 1.25838 14.1105 1.00613L14 2ZM19.4 4.59648L18.6929 5.30359C19.9862 6.59692 20.8021 8.29233 21.0062 10.1115L22 10L22.9938 9.88847C22.7391 7.61902 21.7212 5.50351 20.1071 3.88937L19.4 4.59648Z" fill="currentColor"/>
</svg>
