<svg width="42" height="42" viewBox="0 0 42 42" fill="none" xmlns="http://www.w3.org/2000/svg">
<path d="M8.95588 5.25H13.998C15.4292 5.25 16.7162 6.12133 17.2477 7.45013L19.1096 12.1049C19.6651 13.4937 19.1306 15.0805 17.8479 15.8501C16.4879 16.6661 15.9616 18.4055 16.8518 19.7182C18.3013 21.8557 20.1443 23.6987 22.2818 25.1482C23.5946 26.0384 25.3339 25.5121 26.1499 24.1521C26.9195 22.8694 28.5063 22.3349 29.8951 22.8904L34.5499 24.7523C35.8787 25.2838 36.75 26.5708 36.75 28.002V33.0441C36.75 34.027 36.3596 34.9696 35.6646 35.6646C34.9696 36.3596 34.027 36.75 33.0441 36.75C25.8163 36.3108 18.9991 33.2415 13.8788 28.1212C8.75855 23.0009 5.68924 16.1837 5.25 8.95588C5.25 7.97302 5.64044 7.03042 6.33543 6.33543C7.03042 5.64044 7.97302 5.25 8.95588 5.25Z" stroke="currentColor" stroke-width="3.5" stroke-linecap="round" stroke-linejoin="round"/>
</svg>
