<svg width="59" height="59" viewBox="0 0 59 59" fill="none" xmlns="http://www.w3.org/2000/svg">
<path d="M6.53267e-05 13.6917C6.53267e-05 15.5465 1.50364 17.0501 3.3584 17.0501C5.21315 17.0501 6.71673 15.5465 6.71673 13.6917H3.3584H6.53267e-05ZM3.3584 3.3584V6.53267e-05C1.50364 6.53267e-05 6.53267e-05 1.50364 6.53267e-05 3.3584L3.3584 3.3584ZM13.6917 6.71673C15.5465 6.71673 17.0501 5.21315 17.0501 3.3584C17.0501 1.50364 15.5465 6.53267e-05 13.6917 6.53267e-05V3.3584V6.71673ZM6.71673 44.6917C6.71673 42.837 5.21315 41.3334 3.3584 41.3334C1.50364 41.3334 6.53267e-05 42.837 6.53267e-05 44.6917H3.3584H6.71673ZM3.3584 55.0251H6.53267e-05C6.53267e-05 56.8798 1.50364 58.3834 3.3584 58.3834L3.3584 55.0251ZM13.6917 58.3834C15.5465 58.3834 17.0501 56.8798 17.0501 55.0251C17.0501 53.1703 15.5465 51.6667 13.6917 51.6667V55.0251V58.3834ZM51.6667 13.6917C51.6667 15.5465 53.1703 17.0501 55.0251 17.0501C56.8798 17.0501 58.3834 15.5465 58.3834 13.6917H55.0251H51.6667ZM55.0251 3.3584H58.3834C58.3834 1.50364 56.8798 6.53267e-05 55.0251 6.53267e-05V3.3584ZM44.6917 6.53267e-05C42.837 6.53267e-05 41.3334 1.50364 41.3334 3.3584C41.3334 5.21315 42.837 6.71673 44.6917 6.71673V3.3584V6.53267e-05ZM58.3834 44.6917C58.3834 42.837 56.8798 41.3334 55.0251 41.3334C53.1703 41.3334 51.6667 42.837 51.6667 44.6917H55.0251H58.3834ZM55.0251 55.0251V58.3834C56.8798 58.3834 58.3834 56.8798 58.3834 55.0251H55.0251ZM44.6917 51.6667C42.837 51.6667 41.3334 53.1703 41.3334 55.0251C41.3334 56.8798 42.837 58.3834 44.6917 58.3834V55.0251V51.6667ZM41.3334 36.9417C41.3334 38.7965 42.837 40.3001 44.6917 40.3001C46.5465 40.3001 48.0501 38.7965 48.0501 36.9417H44.6917H41.3334ZM48.0501 34.3584C48.0501 32.5036 46.5465 31.0001 44.6917 31.0001C42.837 31.0001 41.3334 32.5036 41.3334 34.3584H44.6917H48.0501ZM44.6917 48.0501C46.5465 48.0501 48.0501 46.5465 48.0501 44.6917C48.0501 42.837 46.5465 41.3334 44.6917 41.3334V44.6917V48.0501ZM34.3584 41.3334C32.5036 41.3334 31.0001 42.837 31.0001 44.6917C31.0001 46.5465 32.5036 48.0501 34.3584 48.0501V44.6917V41.3334ZM34.3584 31.0001C32.5036 31.0001 31.0001 32.5036 31.0001 34.3584C31.0001 36.2132 32.5036 37.7167 34.3584 37.7167V34.3584V31.0001ZM36.9417 37.7167C38.7965 37.7167 40.3001 36.2132 40.3001 34.3584C40.3001 32.5036 38.7965 31.0001 36.9417 31.0001V34.3584V37.7167ZM3.3584 13.6917H6.71673V3.3584H3.3584H6.53267e-05V13.6917H3.3584ZM3.3584 3.3584V6.71673H13.6917V3.3584V6.53267e-05H3.3584V3.3584ZM3.3584 44.6917H6.53267e-05V55.0251H3.3584H6.71673V44.6917H3.3584ZM3.3584 55.0251V58.3834H13.6917V55.0251V51.6667H3.3584V55.0251ZM55.0251 13.6917H58.3834V3.3584H55.0251H51.6667V13.6917H55.0251ZM55.0251 3.3584V6.53267e-05H44.6917V3.3584V6.71673H55.0251V3.3584ZM55.0251 44.6917H51.6667V55.0251H55.0251H58.3834V44.6917H55.0251ZM55.0251 55.0251V51.6667H44.6917V55.0251V58.3834H55.0251V55.0251ZM16.2751 13.6917V17.0501H21.4417V13.6917V10.3334H16.2751V13.6917ZM24.0251 16.2751H20.6667V21.4417H24.0251H27.3834V16.2751H24.0251ZM21.4417 24.0251V20.6667H16.2751V24.0251V27.3834H21.4417V24.0251ZM13.6917 21.4417H17.0501V16.2751H13.6917H10.3334V21.4417H13.6917ZM16.2751 24.0251V20.6667C16.7031 20.6667 17.0501 21.0137 17.0501 21.4417H13.6917H10.3334C10.3334 24.7232 12.9936 27.3834 16.2751 27.3834V24.0251ZM24.0251 21.4417H20.6667C20.6667 21.0137 21.0137 20.6667 21.4417 20.6667V24.0251V27.3834C24.7232 27.3834 27.3834 24.7232 27.3834 21.4417H24.0251ZM21.4417 13.6917V17.0501C21.0137 17.0501 20.6667 16.7031 20.6667 16.2751H24.0251H27.3834C27.3834 12.9936 24.7232 10.3334 21.4417 10.3334V13.6917ZM16.2751 13.6917V10.3334C12.9936 10.3334 10.3334 12.9936 10.3334 16.2751H13.6917H17.0501C17.0501 16.7031 16.7031 17.0501 16.2751 17.0501V13.6917ZM16.2751 34.3584V37.7167H21.4417V34.3584V31.0001H16.2751V34.3584ZM24.0251 36.9417H20.6667V42.1084H24.0251H27.3834V36.9417H24.0251ZM21.4417 44.6917V41.3334H16.2751V44.6917V48.0501H21.4417V44.6917ZM13.6917 42.1084H17.0501V36.9417H13.6917H10.3334V42.1084H13.6917ZM16.2751 44.6917V41.3334C16.7031 41.3334 17.0501 41.6804 17.0501 42.1084H13.6917H10.3334C10.3334 45.3899 12.9936 48.0501 16.2751 48.0501V44.6917ZM24.0251 42.1084H20.6667C20.6667 41.6804 21.0137 41.3334 21.4417 41.3334V44.6917V48.0501C24.7232 48.0501 27.3834 45.3899 27.3834 42.1084H24.0251ZM21.4417 34.3584V37.7167C21.0137 37.7167 20.6667 37.3698 20.6667 36.9417H24.0251H27.3834C27.3834 33.6602 24.7232 31.0001 21.4417 31.0001V34.3584ZM16.2751 34.3584V31.0001C12.9936 31.0001 10.3334 33.6602 10.3334 36.9417H13.6917H17.0501C17.0501 37.3698 16.7031 37.7167 16.2751 37.7167V34.3584ZM36.9417 13.6917V17.0501H42.1084V13.6917V10.3334H36.9417V13.6917ZM44.6917 16.2751H41.3334V21.4417H44.6917H48.0501V16.2751H44.6917ZM42.1084 24.0251V20.6667H36.9417V24.0251V27.3834H42.1084V24.0251ZM34.3584 21.4417H37.7167V16.2751H34.3584H31.0001V21.4417H34.3584ZM36.9417 24.0251V20.6667C37.3698 20.6667 37.7167 21.0137 37.7167 21.4417H34.3584H31.0001C31.0001 24.7232 33.6602 27.3834 36.9417 27.3834V24.0251ZM44.6917 21.4417H41.3334C41.3334 21.0137 41.6804 20.6667 42.1084 20.6667V24.0251V27.3834C45.3899 27.3834 48.0501 24.7232 48.0501 21.4417H44.6917ZM42.1084 13.6917V17.0501C41.6804 17.0501 41.3334 16.7031 41.3334 16.2751H44.6917H48.0501C48.0501 12.9936 45.3899 10.3334 42.1084 10.3334V13.6917ZM36.9417 13.6917V10.3334C33.6602 10.3334 31.0001 12.9936 31.0001 16.2751H34.3584H37.7167C37.7167 16.7031 37.3698 17.0501 36.9417 17.0501V13.6917ZM44.6917 36.9417H48.0501V34.3584H44.6917H41.3334V36.9417H44.6917ZM44.6917 44.6917V41.3334H34.3584V44.6917V48.0501H44.6917V44.6917ZM34.3584 34.3584V37.7167H36.9417V34.3584V31.0001H34.3584V34.3584Z" fill="#090A07"/>
</svg>
