<svg width="24" height="24" viewBox="0 0 24 24" fill="none" xmlns="http://www.w3.org/2000/svg">
<path d="M15 11V13M15 4V7M15 17V20M4 4H20C21.1046 4 22 4.89543 22 6V7C22 8.10457 21.0125 8.95859 20.1449 9.64218C19.4477 10.1915 19 11.0435 19 12C19 12.9565 19.4477 13.8085 20.1449 14.3578C21.0125 15.0414 22 15.8954 22 17V18C22 19.1046 21.1046 20 20 20H4C2.89543 20 2 19.1046 2 18V17C2 15.8954 2.98747 15.0414 3.85511 14.3578C4.55234 13.8085 5 12.9565 5 12C5 11.0435 4.55234 10.1915 3.85511 9.64218C2.98747 8.95859 2 8.10457 2 7V6C2 4.89543 2.89543 4 4 4Z" stroke="currentColor" stroke-width="2" stroke-linecap="round"/>
</svg>
