<svg width="57" height="40" viewBox="0 0 57 40" fill="none" xmlns="http://www.w3.org/2000/svg">
<path d="M34.2708 2.1875H10.9375C8.21951 2.1875 6.85976 2.1875 5.78776 2.63154C4.35843 3.22358 3.22358 4.35985 2.63154 5.78918C2.1875 6.86118 2.1875 8.22018 2.1875 10.9382C7.01999 10.9382 10.9375 14.8543 10.9375 19.6868C10.9375 24.5193 7.01999 28.4375 2.1875 28.4375C2.1875 31.1555 2.1875 32.5145 2.63154 33.5865C3.22358 35.0158 4.35843 36.1511 5.78776 36.7432C6.85976 37.1872 8.21951 37.1875 10.9375 37.1875H34.2708M34.2708 2.1875H45.9375C48.6555 2.1875 50.0145 2.1875 51.0865 2.63154C52.5158 3.22358 53.6511 4.35985 54.2432 5.78918C54.6872 6.86118 54.6872 8.22019 54.6872 10.9382C49.8547 10.9382 45.9375 14.855 45.9375 19.6875C45.9375 24.52 49.8547 28.4375 54.6872 28.4375C54.6872 31.1555 54.6872 32.5145 54.2432 33.5865C53.6511 35.0158 52.5158 36.1511 51.0865 36.7432C50.0145 37.1872 48.6555 37.1875 45.9375 37.1875H34.2708M34.2708 2.1875V37.1875" stroke="currentColor" stroke-width="4.375" stroke-linecap="round" stroke-linejoin="round"/>
</svg>
